<mxfile host="Electron" modified="2023-05-28T12:54:18.792Z" agent="Mozilla/5.0 (Windows NT 10.0; Win64; x64) AppleWebKit/537.36 (KHTML, like Gecko) draw.io/21.1.2 Chrome/106.0.5249.199 Electron/21.4.3 Safari/537.36" etag="g7kd-HPNEdE-ts34Mxh8" version="21.1.2" type="device">
  <diagram name="Page-1" id="m7iHKYCCG8iU0Z5b5kwS">
    <mxGraphModel dx="1206" dy="817" grid="1" gridSize="10" guides="1" tooltips="1" connect="1" arrows="1" fold="1" page="1" pageScale="1" pageWidth="850" pageHeight="1100" math="0" shadow="0">
      <root>
        <mxCell id="0" />
        <mxCell id="1" parent="0" />
        <mxCell id="CO_NGIFfL66a_29jtt7U-33" style="edgeStyle=orthogonalEdgeStyle;rounded=0;orthogonalLoop=1;jettySize=auto;html=1;entryX=-0.012;entryY=0.872;entryDx=0;entryDy=0;entryPerimeter=0;strokeWidth=1;endArrow=diamondThin;endFill=0;endSize=26;" parent="1" source="CO_NGIFfL66a_29jtt7U-1" target="CO_NGIFfL66a_29jtt7U-10" edge="1">
          <mxGeometry relative="1" as="geometry" />
        </mxCell>
        <mxCell id="CO_NGIFfL66a_29jtt7U-1" value="Application" style="swimlane;fontStyle=1;align=center;verticalAlign=top;childLayout=stackLayout;horizontal=1;startSize=26;horizontalStack=0;resizeParent=1;resizeParentMax=0;resizeLast=0;collapsible=1;marginBottom=0;" parent="1" vertex="1">
          <mxGeometry x="100" y="70" width="190" height="98" as="geometry" />
        </mxCell>
        <mxCell id="CO_NGIFfL66a_29jtt7U-2" value="+ menu_items: List of MenuItems&#xa;&#xa;+ current_document: Document" style="text;strokeColor=none;fillColor=none;align=left;verticalAlign=top;spacingLeft=4;spacingRight=4;overflow=hidden;rotatable=0;points=[[0,0.5],[1,0.5]];portConstraint=eastwest;" parent="CO_NGIFfL66a_29jtt7U-1" vertex="1">
          <mxGeometry y="26" width="190" height="64" as="geometry" />
        </mxCell>
        <mxCell id="CO_NGIFfL66a_29jtt7U-3" value="" style="line;strokeWidth=1;fillColor=none;align=left;verticalAlign=middle;spacingTop=-1;spacingLeft=3;spacingRight=3;rotatable=0;labelPosition=right;points=[];portConstraint=eastwest;strokeColor=inherit;" parent="CO_NGIFfL66a_29jtt7U-1" vertex="1">
          <mxGeometry y="90" width="190" height="8" as="geometry" />
        </mxCell>
        <mxCell id="CO_NGIFfL66a_29jtt7U-27" style="edgeStyle=orthogonalEdgeStyle;rounded=0;orthogonalLoop=1;jettySize=auto;html=1;entryX=1.025;entryY=0.219;entryDx=0;entryDy=0;entryPerimeter=0;strokeWidth=1;endArrow=diamondThin;endFill=0;endSize=26;" parent="1" source="CO_NGIFfL66a_29jtt7U-5" target="CO_NGIFfL66a_29jtt7U-2" edge="1">
          <mxGeometry relative="1" as="geometry" />
        </mxCell>
        <mxCell id="CO_NGIFfL66a_29jtt7U-5" value="MenuItem" style="swimlane;fontStyle=1;align=center;verticalAlign=top;childLayout=stackLayout;horizontal=1;startSize=26;horizontalStack=0;resizeParent=1;resizeParentMax=0;resizeLast=0;collapsible=1;marginBottom=0;" parent="1" vertex="1">
          <mxGeometry x="330" y="250" width="160" height="86" as="geometry" />
        </mxCell>
        <mxCell id="CO_NGIFfL66a_29jtt7U-6" value="- command: Command" style="text;strokeColor=none;fillColor=none;align=left;verticalAlign=top;spacingLeft=4;spacingRight=4;overflow=hidden;rotatable=0;points=[[0,0.5],[1,0.5]];portConstraint=eastwest;" parent="CO_NGIFfL66a_29jtt7U-5" vertex="1">
          <mxGeometry y="26" width="160" height="26" as="geometry" />
        </mxCell>
        <mxCell id="CO_NGIFfL66a_29jtt7U-7" value="" style="line;strokeWidth=1;fillColor=none;align=left;verticalAlign=middle;spacingTop=-1;spacingLeft=3;spacingRight=3;rotatable=0;labelPosition=right;points=[];portConstraint=eastwest;strokeColor=inherit;" parent="CO_NGIFfL66a_29jtt7U-5" vertex="1">
          <mxGeometry y="52" width="160" height="8" as="geometry" />
        </mxCell>
        <mxCell id="CO_NGIFfL66a_29jtt7U-8" value="+ click()" style="text;strokeColor=none;fillColor=none;align=left;verticalAlign=top;spacingLeft=4;spacingRight=4;overflow=hidden;rotatable=0;points=[[0,0.5],[1,0.5]];portConstraint=eastwest;" parent="CO_NGIFfL66a_29jtt7U-5" vertex="1">
          <mxGeometry y="60" width="160" height="26" as="geometry" />
        </mxCell>
        <mxCell id="CO_NGIFfL66a_29jtt7U-26" style="edgeStyle=orthogonalEdgeStyle;rounded=0;orthogonalLoop=1;jettySize=auto;html=1;entryX=1;entryY=0.5;entryDx=0;entryDy=0;endArrow=diamondThin;endFill=0;strokeWidth=1;endSize=26;" parent="1" source="CO_NGIFfL66a_29jtt7U-9" target="CO_NGIFfL66a_29jtt7U-6" edge="1">
          <mxGeometry relative="1" as="geometry" />
        </mxCell>
        <mxCell id="CO_NGIFfL66a_29jtt7U-9" value="Command" style="swimlane;fontStyle=1;align=center;verticalAlign=top;childLayout=stackLayout;horizontal=1;startSize=26;horizontalStack=0;resizeParent=1;resizeParentMax=0;resizeLast=0;collapsible=1;marginBottom=0;" parent="1" vertex="1">
          <mxGeometry x="530" y="390" width="160" height="86" as="geometry" />
        </mxCell>
        <mxCell id="CO_NGIFfL66a_29jtt7U-10" value="- app: Application" style="text;strokeColor=none;fillColor=none;align=left;verticalAlign=top;spacingLeft=4;spacingRight=4;overflow=hidden;rotatable=0;points=[[0,0.5],[1,0.5]];portConstraint=eastwest;fontStyle=1" parent="CO_NGIFfL66a_29jtt7U-9" vertex="1">
          <mxGeometry y="26" width="160" height="26" as="geometry" />
        </mxCell>
        <mxCell id="CO_NGIFfL66a_29jtt7U-11" value="" style="line;strokeWidth=1;fillColor=none;align=left;verticalAlign=middle;spacingTop=-1;spacingLeft=3;spacingRight=3;rotatable=0;labelPosition=right;points=[];portConstraint=eastwest;strokeColor=inherit;" parent="CO_NGIFfL66a_29jtt7U-9" vertex="1">
          <mxGeometry y="52" width="160" height="8" as="geometry" />
        </mxCell>
        <mxCell id="CO_NGIFfL66a_29jtt7U-12" value="+ execute()" style="text;strokeColor=none;fillColor=none;align=left;verticalAlign=top;spacingLeft=4;spacingRight=4;overflow=hidden;rotatable=0;points=[[0,0.5],[1,0.5]];portConstraint=eastwest;fontStyle=1" parent="CO_NGIFfL66a_29jtt7U-9" vertex="1">
          <mxGeometry y="60" width="160" height="26" as="geometry" />
        </mxCell>
        <mxCell id="CO_NGIFfL66a_29jtt7U-25" style="edgeStyle=orthogonalEdgeStyle;rounded=0;orthogonalLoop=1;jettySize=auto;html=1;" parent="1" source="CO_NGIFfL66a_29jtt7U-13" target="CO_NGIFfL66a_29jtt7U-12" edge="1">
          <mxGeometry relative="1" as="geometry" />
        </mxCell>
        <mxCell id="CO_NGIFfL66a_29jtt7U-34" style="edgeStyle=orthogonalEdgeStyle;rounded=0;orthogonalLoop=1;jettySize=auto;html=1;entryX=0.367;entryY=1.008;entryDx=0;entryDy=0;entryPerimeter=0;strokeWidth=1;endArrow=classic;endFill=1;endSize=10;dashed=1;" parent="1" source="CO_NGIFfL66a_29jtt7U-13" target="CO_NGIFfL66a_29jtt7U-31" edge="1">
          <mxGeometry relative="1" as="geometry">
            <Array as="points">
              <mxPoint x="350" y="590" />
              <mxPoint x="79" y="590" />
            </Array>
          </mxGeometry>
        </mxCell>
        <mxCell id="CO_NGIFfL66a_29jtt7U-13" value="OpenCommand" style="swimlane;fontStyle=1;align=center;verticalAlign=top;childLayout=stackLayout;horizontal=1;startSize=26;horizontalStack=0;resizeParent=1;resizeParentMax=0;resizeLast=0;collapsible=1;marginBottom=0;" parent="1" vertex="1">
          <mxGeometry x="270" y="520" width="160" height="60" as="geometry" />
        </mxCell>
        <mxCell id="CO_NGIFfL66a_29jtt7U-15" value="" style="line;strokeWidth=1;fillColor=none;align=left;verticalAlign=middle;spacingTop=-1;spacingLeft=3;spacingRight=3;rotatable=0;labelPosition=right;points=[];portConstraint=eastwest;strokeColor=inherit;" parent="CO_NGIFfL66a_29jtt7U-13" vertex="1">
          <mxGeometry y="26" width="160" height="8" as="geometry" />
        </mxCell>
        <mxCell id="CO_NGIFfL66a_29jtt7U-16" value="+ execute()" style="text;strokeColor=none;fillColor=none;align=left;verticalAlign=top;spacingLeft=4;spacingRight=4;overflow=hidden;rotatable=0;points=[[0,0.5],[1,0.5]];portConstraint=eastwest;" parent="CO_NGIFfL66a_29jtt7U-13" vertex="1">
          <mxGeometry y="34" width="160" height="26" as="geometry" />
        </mxCell>
        <mxCell id="CO_NGIFfL66a_29jtt7U-24" style="edgeStyle=orthogonalEdgeStyle;rounded=0;orthogonalLoop=1;jettySize=auto;html=1;entryX=0.204;entryY=1.103;entryDx=0;entryDy=0;entryPerimeter=0;" parent="1" source="CO_NGIFfL66a_29jtt7U-17" target="CO_NGIFfL66a_29jtt7U-12" edge="1">
          <mxGeometry relative="1" as="geometry">
            <Array as="points">
              <mxPoint x="560" y="479" />
            </Array>
          </mxGeometry>
        </mxCell>
        <mxCell id="CO_NGIFfL66a_29jtt7U-17" value="RewriteCommand" style="swimlane;fontStyle=1;align=center;verticalAlign=top;childLayout=stackLayout;horizontal=1;startSize=26;horizontalStack=0;resizeParent=1;resizeParentMax=0;resizeLast=0;collapsible=1;marginBottom=0;" parent="1" vertex="1">
          <mxGeometry x="480" y="520" width="160" height="60" as="geometry" />
        </mxCell>
        <mxCell id="CO_NGIFfL66a_29jtt7U-18" value="" style="line;strokeWidth=1;fillColor=none;align=left;verticalAlign=middle;spacingTop=-1;spacingLeft=3;spacingRight=3;rotatable=0;labelPosition=right;points=[];portConstraint=eastwest;strokeColor=inherit;" parent="CO_NGIFfL66a_29jtt7U-17" vertex="1">
          <mxGeometry y="26" width="160" height="8" as="geometry" />
        </mxCell>
        <mxCell id="CO_NGIFfL66a_29jtt7U-19" value="+ execute()" style="text;strokeColor=none;fillColor=none;align=left;verticalAlign=top;spacingLeft=4;spacingRight=4;overflow=hidden;rotatable=0;points=[[0,0.5],[1,0.5]];portConstraint=eastwest;" parent="CO_NGIFfL66a_29jtt7U-17" vertex="1">
          <mxGeometry y="34" width="160" height="26" as="geometry" />
        </mxCell>
        <mxCell id="CO_NGIFfL66a_29jtt7U-23" style="edgeStyle=orthogonalEdgeStyle;rounded=0;orthogonalLoop=1;jettySize=auto;html=1;entryX=1;entryY=0.5;entryDx=0;entryDy=0;" parent="1" source="CO_NGIFfL66a_29jtt7U-20" target="CO_NGIFfL66a_29jtt7U-12" edge="1">
          <mxGeometry relative="1" as="geometry" />
        </mxCell>
        <mxCell id="CO_NGIFfL66a_29jtt7U-37" style="edgeStyle=orthogonalEdgeStyle;rounded=0;orthogonalLoop=1;jettySize=auto;html=1;entryX=0.075;entryY=1.008;entryDx=0;entryDy=0;entryPerimeter=0;dashed=1;strokeWidth=1;endArrow=classic;endFill=1;endSize=10;" parent="1" source="CO_NGIFfL66a_29jtt7U-20" target="CO_NGIFfL66a_29jtt7U-31" edge="1">
          <mxGeometry relative="1" as="geometry">
            <Array as="points">
              <mxPoint x="750" y="630" />
              <mxPoint x="32" y="630" />
            </Array>
          </mxGeometry>
        </mxCell>
        <mxCell id="CO_NGIFfL66a_29jtt7U-20" value="DeleteCommand" style="swimlane;fontStyle=1;align=center;verticalAlign=top;childLayout=stackLayout;horizontal=1;startSize=26;horizontalStack=0;resizeParent=1;resizeParentMax=0;resizeLast=0;collapsible=1;marginBottom=0;" parent="1" vertex="1">
          <mxGeometry x="670" y="520" width="160" height="60" as="geometry" />
        </mxCell>
        <mxCell id="CO_NGIFfL66a_29jtt7U-21" value="" style="line;strokeWidth=1;fillColor=none;align=left;verticalAlign=middle;spacingTop=-1;spacingLeft=3;spacingRight=3;rotatable=0;labelPosition=right;points=[];portConstraint=eastwest;strokeColor=inherit;" parent="CO_NGIFfL66a_29jtt7U-20" vertex="1">
          <mxGeometry y="26" width="160" height="8" as="geometry" />
        </mxCell>
        <mxCell id="CO_NGIFfL66a_29jtt7U-22" value="+ execute()" style="text;strokeColor=none;fillColor=none;align=left;verticalAlign=top;spacingLeft=4;spacingRight=4;overflow=hidden;rotatable=0;points=[[0,0.5],[1,0.5]];portConstraint=eastwest;" parent="CO_NGIFfL66a_29jtt7U-20" vertex="1">
          <mxGeometry y="34" width="160" height="26" as="geometry" />
        </mxCell>
        <mxCell id="CO_NGIFfL66a_29jtt7U-32" style="edgeStyle=orthogonalEdgeStyle;rounded=0;orthogonalLoop=1;jettySize=auto;html=1;strokeWidth=1;endArrow=diamondThin;endFill=0;endSize=26;exitX=0.75;exitY=0;exitDx=0;exitDy=0;" parent="1" source="CO_NGIFfL66a_29jtt7U-28" edge="1">
          <mxGeometry relative="1" as="geometry">
            <mxPoint x="140" y="170" as="targetPoint" />
          </mxGeometry>
        </mxCell>
        <mxCell id="CO_NGIFfL66a_29jtt7U-28" value="Document" style="swimlane;fontStyle=1;align=center;verticalAlign=top;childLayout=stackLayout;horizontal=1;startSize=26;horizontalStack=0;resizeParent=1;resizeParentMax=0;resizeLast=0;collapsible=1;marginBottom=0;" parent="1" vertex="1">
          <mxGeometry x="20" y="290" width="160" height="170" as="geometry" />
        </mxCell>
        <mxCell id="CO_NGIFfL66a_29jtt7U-29" value="+ name: String&#xa;+ text: String" style="text;strokeColor=none;fillColor=none;align=left;verticalAlign=top;spacingLeft=4;spacingRight=4;overflow=hidden;rotatable=0;points=[[0,0.5],[1,0.5]];portConstraint=eastwest;" parent="CO_NGIFfL66a_29jtt7U-28" vertex="1">
          <mxGeometry y="26" width="160" height="54" as="geometry" />
        </mxCell>
        <mxCell id="CO_NGIFfL66a_29jtt7U-30" value="" style="line;strokeWidth=1;fillColor=none;align=left;verticalAlign=middle;spacingTop=-1;spacingLeft=3;spacingRight=3;rotatable=0;labelPosition=right;points=[];portConstraint=eastwest;strokeColor=inherit;" parent="CO_NGIFfL66a_29jtt7U-28" vertex="1">
          <mxGeometry y="80" width="160" height="8" as="geometry" />
        </mxCell>
        <mxCell id="CO_NGIFfL66a_29jtt7U-31" value="+ open()&#xa;+ delete()&#xa;+ rewrite()&#xa;+ show()&#xa;+ close() &#xa;" style="text;strokeColor=none;fillColor=none;align=left;verticalAlign=top;spacingLeft=4;spacingRight=4;overflow=hidden;rotatable=0;points=[[0,0.5],[1,0.5]];portConstraint=eastwest;" parent="CO_NGIFfL66a_29jtt7U-28" vertex="1">
          <mxGeometry y="88" width="160" height="82" as="geometry" />
        </mxCell>
        <mxCell id="CO_NGIFfL66a_29jtt7U-35" style="edgeStyle=orthogonalEdgeStyle;rounded=0;orthogonalLoop=1;jettySize=auto;html=1;entryX=0.5;entryY=1;entryDx=0;entryDy=0;entryPerimeter=0;dashed=1;strokeWidth=1;endArrow=classic;endFill=1;endSize=10;" parent="1" source="CO_NGIFfL66a_29jtt7U-19" target="CO_NGIFfL66a_29jtt7U-31" edge="1">
          <mxGeometry relative="1" as="geometry">
            <Array as="points">
              <mxPoint x="560" y="610" />
              <mxPoint x="100" y="610" />
            </Array>
          </mxGeometry>
        </mxCell>
        <mxCell id="CO_NGIFfL66a_29jtt7U-41" value="" style="group" parent="1" vertex="1" connectable="0">
          <mxGeometry x="480" y="80" width="260" height="230" as="geometry" />
        </mxCell>
        <mxCell id="CO_NGIFfL66a_29jtt7U-42" value="" style="shape=note;whiteSpace=wrap;html=1;backgroundOutline=1;darkOpacity=0.05;fillColor=#f5f5f5;fontColor=#333333;strokeColor=#666666;" parent="CO_NGIFfL66a_29jtt7U-41" vertex="1">
          <mxGeometry width="260" height="130" as="geometry" />
        </mxCell>
        <mxCell id="CO_NGIFfL66a_29jtt7U-43" value="&lt;h1&gt;Client:&lt;/h1&gt;&lt;div&gt;my_app = Application()&lt;/div&gt;&lt;div&gt;my_app.menu_items[&#39;open&#39;].click()&lt;/div&gt;" style="text;html=1;strokeColor=none;fillColor=none;spacing=5;spacingTop=-20;whiteSpace=wrap;overflow=hidden;rounded=0;" parent="CO_NGIFfL66a_29jtt7U-41" vertex="1">
          <mxGeometry x="7" y="22" width="230" height="200" as="geometry" />
        </mxCell>
      </root>
    </mxGraphModel>
  </diagram>
</mxfile>
